<?xml version="1.0" standalone="no"?>
<!DOCTYPE svg PUBLIC "-//W3C//DTD SVG 20010904//EN"
 "http://www.w3.org/TR/2001/REC-SVG-20010904/DTD/svg10.dtd">
<svg version="1.0" xmlns="http://www.w3.org/2000/svg"
 width="723.000000pt" height="723.000000pt" viewBox="0 0 723.000000 723.000000"
 preserveAspectRatio="xMidYMid meet">
<metadata>
Created by potrace 1.14, written by Peter Selinger 2001-2017
</metadata>
<g transform="translate(0.000000,723.000000) scale(0.100000,-0.100000)"
fill="#000000" stroke="none">
<path d="M0 5904 l0 -1327 49 65 c88 117 197 191 336 229 72 19 87 20 160 10
156 -22 214 -14 287 35 23 16 44 24 56 20 32 -11 265 40 342 74 76 33 97 35
114 8 8 -13 3 -33 -24 -88 l-34 -71 29 -24 30 -23 -21 -29 c-11 -15 -26 -43
-32 -62 -7 -19 -23 -49 -37 -67 -14 -18 -25 -36 -25 -39 0 -4 -8 -19 -19 -33
-10 -15 -36 -58 -56 -97 -21 -38 -52 -95 -68 -125 -78 -143 -205 -412 -282
-595 -36 -88 -72 -173 -80 -190 -16 -35 -53 -121 -65 -150 -4 -11 -19 -47 -33
-80 -35 -81 -154 -444 -171 -519 -8 -34 -24 -101 -36 -151 -12 -49 -25 -104
-27 -122 -8 -54 -18 -56 -214 -57 l-179 0 0 -1248 0 -1248 880 0 880 0 -25 48
c-14 26 -43 79 -65 117 -78 140 -116 255 -154 470 -55 306 -57 411 -16 665 32
193 72 332 136 468 19 40 34 75 34 77 0 14 179 320 220 377 28 37 50 71 50 76
0 7 47 75 99 143 10 14 29 43 40 65 12 22 30 50 40 61 21 22 211 331 245 398
11 22 31 56 44 75 63 93 165 348 259 645 97 312 114 378 183 750 17 88 39 205
50 260 12 55 57 281 100 501 118 598 180 820 303 1093 71 157 146 288 205 361
26 32 60 74 75 94 24 32 80 80 175 153 39 30 171 73 223 73 130 0 223 -88 285
-270 16 -46 19 -84 18 -230 0 -184 -4 -204 -79 -470 -45 -157 -46 -172 -19
-342 21 -138 43 -258 61 -337 6 -26 8 -26 -104 -5 -29 5 -33 4 -33 -14 0 -12
-9 -30 -20 -40 -12 -11 -18 -26 -15 -34 4 -9 42 -35 85 -58 116 -63 118 -66
129 -201 5 -63 13 -122 16 -131 5 -14 -13 -26 -98 -67 -75 -36 -114 -62 -139
-91 -19 -22 -40 -40 -46 -40 -7 0 -32 15 -56 34 -60 45 -190 81 -244 67 -60
-17 -151 -70 -195 -115 -48 -49 -99 -155 -128 -269 -42 -159 -19 -405 50 -551
33 -67 117 -158 174 -187 40 -21 134 -39 202 -39 85 0 142 23 200 80 l53 52
54 -36 c67 -45 146 -63 204 -47 22 6 75 32 118 58 72 44 79 52 103 108 70 164
77 193 81 335 3 93 8 140 17 150 36 40 25 106 -17 112 -29 4 -35 36 -13 78 23
44 3 84 -43 88 -18 2 -36 10 -38 17 -7 17 82 145 100 145 3 0 15 -18 26 -40
31 -60 87 -118 144 -148 46 -25 61 -27 161 -27 123 0 140 6 220 75 52 45 65
48 90 20 33 -36 123 -63 193 -57 69 5 76 9 87 46 6 21 5 23 -11 16 -11 -4 -42
-12 -70 -17 -71 -13 -128 4 -177 53 -37 36 -39 41 -31 76 17 73 7 153 -26 216
-25 47 -28 62 -19 78 18 35 95 63 174 63 87 1 132 -21 201 -97 l50 -54 33 69
c25 53 45 78 85 108 139 105 289 52 399 -140 28 -51 81 -195 91 -254 6 -33 9
-37 21 -25 8 8 28 51 44 96 63 174 137 307 282 506 23 31 40 60 37 63 -4 3
-22 1 -42 -4 -64 -18 -78 34 -42 158 21 72 31 91 65 121 33 30 52 38 98 44 32
4 61 9 66 12 4 2 -11 25 -33 50 -22 25 -40 55 -40 66 0 85 417 256 478 195 7
-7 12 -29 12 -50 0 -21 5 -38 10 -38 7 0 10 228 10 665 l0 665 -3615 0 -3615
0 0 -1326z m1774 -499 c66 -19 108 -61 140 -140 21 -51 25 -56 25 -30 0 17 -8
50 -19 73 -23 51 -16 73 30 97 68 35 193 3 255 -67 68 -74 86 -159 49 -232
-29 -59 -45 -65 -96 -37 -24 13 -50 30 -58 37 -12 12 -12 14 3 14 32 0 57 37
57 85 0 96 -74 160 -125 108 -25 -24 -16 -123 13 -163 l23 -30 -55 0 c-56 0
-86 16 -86 46 0 28 -19 3 -31 -39 -8 -30 -26 -56 -62 -89 -69 -65 -36 -61 37
3 l57 52 72 -12 c119 -21 246 -89 307 -166 29 -37 34 -54 30 -104 -7 -90 -125
-124 -329 -96 -111 16 -173 14 -251 -6 -52 -13 -164 -137 -231 -256 -34 -60
-194 -382 -222 -448 -31 -71 -137 -342 -137 -350 0 -3 -31 -94 -69 -203 -67
-194 -90 -273 -135 -482 -27 -125 -37 -130 -91 -50 -60 89 -60 85 -7 255 17
53 110 282 137 334 14 28 34 72 44 98 10 27 41 95 69 153 27 58 59 125 70 150
12 25 37 74 57 109 37 68 42 85 23 79 -16 -6 -65 -95 -182 -333 -162 -330
-296 -666 -296 -743 0 -22 14 -52 43 -92 23 -33 55 -78 70 -101 42 -60 58 -51
79 46 68 325 70 332 216 750 70 199 104 288 136 359 13 28 27 62 31 76 20 65
182 372 235 444 91 126 140 173 190 181 65 11 290 -4 296 -20 3 -7 -10 -37
-29 -66 -59 -94 -183 -331 -215 -414 -17 -44 -48 -120 -67 -170 -93 -233 -147
-444 -204 -795 -11 -69 -32 -199 -47 -290 -15 -91 -32 -198 -38 -238 -7 -44
-17 -77 -26 -82 -8 -5 -63 -10 -121 -10 -112 0 -118 2 -144 53 -5 11 -37 34
-70 51 -59 31 -61 31 -193 28 l-133 -3 -124 126 c-83 84 -125 134 -125 148 0
54 142 433 260 697 28 63 71 162 95 220 60 142 246 507 338 665 56 95 126 192
201 278 l70 79 60 -5 c34 -3 70 -2 81 3 15 6 8 9 -27 9 -55 1 -161 35 -198 63
-69 53 -91 159 -50 243 30 61 100 125 162 146 65 22 162 24 232 4z m3315 -334
c56 -29 119 -87 140 -130 10 -20 24 -64 31 -97 16 -81 -3 -143 -66 -214 -38
-41 -57 -53 -111 -70 -101 -31 -166 -27 -251 15 -86 43 -125 89 -148 173 -16
58 -16 65 1 129 47 173 252 271 404 194z m-733 -337 c74 -35 172 -179 209
-306 41 -143 50 -351 19 -457 -37 -131 -159 -290 -233 -304 -91 -18 -171 0
-223 50 -33 32 -34 51 -8 120 65 173 39 512 -54 688 -9 17 -16 45 -16 64 0 49
68 111 152 139 77 26 110 27 154 6z m-461 -52 c64 -31 80 -46 121 -109 45 -70
60 -109 84 -212 39 -167 40 -379 2 -532 -10 -39 -111 -173 -140 -184 -9 -4
-51 -15 -91 -26 -91 -23 -120 -19 -222 32 -82 41 -150 106 -177 169 -85 201
-84 494 3 675 29 60 111 155 163 187 69 43 171 43 257 0z m-2089 -845 c41
-102 57 -149 86 -257 16 -63 34 -142 39 -175 5 -33 14 -91 20 -130 6 -38 15
-106 19 -150 4 -44 13 -114 18 -155 6 -41 13 -132 16 -202 l6 -127 -37 -11
c-60 -17 -433 -33 -449 -19 -18 15 -17 50 1 119 8 30 15 73 15 95 0 22 4 56
10 75 5 19 17 84 25 145 9 60 24 139 35 175 26 89 40 180 33 212 -3 15 2 51
10 80 23 84 37 139 48 193 6 28 19 75 30 105 11 30 22 61 24 67 8 23 33 2 51
-40z m-1147 -1017 l94 -101 -22 -22 c-11 -12 -42 -33 -68 -47 -75 -41 -88 -67
-85 -167 1 -46 -1 -90 -5 -96 -12 -20 -79 -282 -107 -420 -17 -87 -14 -104 22
-118 23 -9 24 -13 18 -56 -9 -65 -20 -76 -58 -57 -16 8 -47 32 -70 52 l-40 36
6 91 c4 49 11 117 16 150 5 33 14 103 20 155 18 150 40 301 51 350 28 129 83
347 92 357 14 19 34 4 136 -107z m1 -534 c21 -45 48 -117 60 -161 19 -70 21
-92 13 -175 l-8 -95 -55 3 c-54 3 -157 25 -168 36 -10 11 -3 71 23 181 15 61
34 149 44 196 28 136 35 137 91 15z m159 -565 c12 -63 21 -118 21 -123 0 -5
19 -6 43 -3 39 6 48 3 87 -27 28 -21 48 -46 54 -66 6 -23 20 -39 46 -52 66
-34 192 -60 288 -60 60 0 93 -4 100 -13 11 -13 1 -134 -13 -156 -3 -6 -19 -11
-35 -11 -83 0 -304 -75 -326 -111 -4 -7 3 -19 16 -29 21 -16 22 -20 10 -56
-16 -50 -36 -72 -74 -82 -69 -18 -142 29 -205 131 -13 21 -26 36 -28 33 -7 -7
16 -65 39 -96 45 -62 96 -349 107 -605 11 -250 -3 -325 -61 -325 -31 0 -93 37
-123 72 -42 49 -151 283 -201 431 -72 215 -89 313 -89 522 0 284 44 687 80
724 11 11 16 10 34 -8 18 -18 24 -19 40 -9 15 9 26 9 43 1 13 -6 31 -14 41
-17 13 -4 17 -17 17 -58 0 -28 5 -103 11 -165 12 -123 7 -183 -16 -183 -11 0
-15 14 -16 58 0 31 -4 77 -8 102 -8 43 -9 44 -10 10 -1 -39 23 -335 39 -470
41 -358 110 -767 141 -833 13 -29 39 -37 39 -11 0 9 -9 58 -20 108 -12 50 -27
120 -35 156 -17 73 -42 215 -55 305 -5 33 -14 98 -21 145 -7 47 -13 175 -12
285 0 181 2 206 22 264 12 36 18 67 13 70 -20 13 -30 50 -37 136 -7 91 5 159
25 139 5 -5 18 -60 29 -123z m-366 -35 c20 -19 26 -32 22 -53 -2 -15 -9 -77
-15 -138 -6 -60 -16 -146 -22 -190 -6 -44 -12 -144 -12 -222 -1 -78 -4 -144
-7 -147 -6 -6 -11 24 -39 217 -14 92 -13 347 2 463 13 105 23 115 71 70z m580
-1168 c55 -225 108 -480 102 -486 -2 -3 -33 9 -68 25 l-63 31 -2 213 c-1 146
-6 236 -17 284 -8 39 -15 82 -15 98 0 66 20 13 63 -165z m-431 -282 c31 -7 58
-31 58 -52 0 -11 -13 -7 -52 14 -48 27 -78 58 -46 48 7 -2 25 -7 40 -10z
m-354 -52 c-3 -19 -34 -41 -43 -32 -9 9 18 48 33 48 7 0 12 -7 10 -16z"/>
<path d="M1710 5308 c-38 -62 -17 -171 35 -184 35 -9 73 10 85 42 6 14 10 49
10 79 0 46 -4 56 -26 74 -41 32 -80 28 -104 -11z"/>
<path d="M1720 4970 c-29 -12 -38 -19 -24 -19 29 -1 84 19 84 30 0 12 -8 11
-60 -11z"/>
<path d="M5023 4945 c-42 -30 -38 -111 7 -135 30 -16 79 -3 92 25 13 28 3 89
-18 110 -20 19 -53 19 -81 0z"/>
<path d="M4273 4416 c-25 -22 -28 -31 -28 -85 1 -47 5 -66 20 -80 31 -31 67
-35 95 -13 20 17 25 30 28 90 4 61 1 73 -17 91 -28 28 -63 27 -98 -3z"/>
<path d="M3882 4387 c-18 -19 -22 -35 -22 -88 0 -87 27 -129 82 -129 47 0 76
72 64 154 -12 80 -78 113 -124 63z"/>
<path d="M605 1688 c-4 -14 -2 -67 4 -119 5 -52 8 -105 5 -119 -8 -40 25 -677
41 -791 8 -57 15 -110 15 -116 0 -7 7 -13 15 -13 18 0 19 26 4 125 -22 154
-58 723 -59 935 0 98 -13 147 -25 98z"/>
<path d="M917 1453 c-4 -3 -7 -11 -7 -17 0 -6 5 -5 12 2 6 6 9 14 7 17 -3 3
-9 2 -12 -2z"/>
<path d="M886 1393 c-6 -14 -5 -15 5 -6 7 7 10 15 7 18 -3 3 -9 -2 -12 -12z"/>
<path d="M910 1157 c0 -9 13 -31 30 -49 39 -44 39 -14 0 32 -21 24 -30 29 -30
17z"/>
<path d="M6750 5392 c-45 -23 -56 -34 -61 -61 -4 -18 -22 -49 -41 -69 -100
-106 -226 -331 -299 -532 -46 -130 -46 -130 -25 -260 46 -273 54 -434 44 -830
-1 -50 105 -285 187 -411 37 -57 99 -144 138 -192 64 -79 73 -87 84 -71 7 10
13 21 13 26 0 19 72 117 117 160 75 69 120 89 208 89 40 0 83 -5 94 -11 37
-19 25 23 -26 96 -53 76 -73 143 -73 250 0 118 47 256 104 303 14 12 16 77 16
703 l0 689 -27 -15 c-75 -41 -220 -76 -318 -76 -50 0 -120 31 -135 60 -9 17
-7 29 14 65 15 24 30 47 36 50 5 3 19 19 30 35 l21 30 -23 0 c-13 -1 -48 -13
-78 -28z"/>
<path d="M3525 5248 c-60 -33 -137 -75 -170 -93 -42 -22 -61 -39 -63 -55 -3
-20 0 -22 32 -18 43 5 44 2 11 -24 -32 -25 -33 -58 -2 -58 21 0 317 151 351
179 39 32 3 60 -46 35 -43 -22 -49 -7 -10 27 31 28 39 59 17 65 -5 2 -59 -24
-120 -58z"/>
<path d="M5393 4959 c-43 -16 -58 -83 -25 -112 41 -37 112 -2 112 55 0 41 -47
72 -87 57z"/>
<path d="M5626 4861 c-4 -7 -5 -15 -2 -18 9 -9 19 4 14 18 -4 11 -6 11 -12 0z"/>
<path d="M5601 4764 c0 -11 3 -14 6 -6 3 7 2 16 -1 19 -3 4 -6 -2 -5 -13z"/>
<path d="M620 4495 c0 -47 -26 -83 -62 -87 -28 -3 -33 -6 -30 -27 4 -38 11
-39 40 -4 15 18 40 35 55 39 32 7 45 30 28 47 -6 6 -11 21 -11 34 0 13 -4 23
-10 23 -5 0 -10 -11 -10 -25z"/>
<path d="M726 4445 c-17 -13 -16 -15 18 -46 45 -39 55 -57 73 -133 12 -51 12
-75 1 -144 -12 -78 -15 -86 -61 -137 -38 -44 -45 -55 -30 -55 26 0 67 45 92
100 17 37 21 66 21 157 0 108 -1 114 -35 179 -19 37 -35 73 -35 80 0 18 -20
17 -44 -1z"/>
<path d="M649 4304 c-20 -24 -24 -124 -6 -166 32 -75 108 -53 107 31 -1 62
-17 124 -36 138 -24 17 -49 16 -65 -3z"/>
<path d="M497 4293 c-11 -10 -8 -43 3 -43 6 0 10 11 10 25 0 26 -2 29 -13 18z"/>
<path d="M476 4188 c-5 -21 -5 -55 0 -75 l8 -38 4 38 c2 20 2 54 0 75 l-4 37
-8 -37z"/>
<path d="M490 4031 c0 -20 63 -103 84 -111 35 -13 31 -3 -17 49 -26 28 -47 55
-47 61 0 5 -4 10 -10 10 -5 0 -10 -4 -10 -9z"/>
<path d="M5270 4003 c-204 -39 -397 -105 -508 -174 -34 -22 -77 -42 -95 -46
-42 -8 -127 -72 -127 -95 0 -33 28 -31 79 6 27 20 51 36 55 36 17 0 1 -29 -49
-85 -51 -59 -67 -96 -46 -109 10 -7 34 20 100 112 24 34 52 64 62 67 24 8 202
-19 334 -50 140 -32 215 -40 215 -21 0 10 -14 17 -37 21 -21 3 -72 15 -113 26
-98 25 -188 45 -277 59 -40 7 -75 16 -79 21 -3 5 -4 9 -2 10 2 0 127 3 278 6
270 5 300 9 300 39 0 11 -37 12 -202 8 -112 -3 -225 -9 -253 -14 -64 -11 -78
3 -29 28 44 22 217 79 284 93 148 31 203 38 220 29 15 -8 20 -5 29 20 10 30
10 30 -27 29 -20 -1 -71 -8 -112 -16z"/>
<path d="M5373 3913 c-3 -10 -8 -21 -10 -25 -2 -4 1 -9 6 -12 5 -3 14 8 20 24
6 19 6 30 0 30 -5 0 -12 -8 -16 -17z"/>
<path d="M490 3906 c0 -17 44 -50 80 -61 23 -6 22 -4 -10 24 -50 45 -70 55
-70 37z"/>
<path d="M618 3913 c7 -3 16 -2 19 1 4 3 -2 6 -13 5 -11 0 -14 -3 -6 -6z"/>
<path d="M6330 3493 c-1 -32 -7 -74 -14 -93 -8 -19 -23 -62 -35 -95 -85 -236
-279 -581 -427 -755 -71 -85 -71 -86 -76 -153 -4 -74 -29 -120 -67 -125 -18
-3 -21 1 -21 31 0 19 7 40 15 47 8 7 15 20 15 29 0 11 -14 2 -40 -26 -32 -34
-39 -48 -38 -79 2 -43 -20 -64 -66 -64 -19 0 -51 -14 -83 -36 -48 -33 -58 -36
-106 -32 -49 4 -56 8 -111 65 -55 57 -165 216 -166 239 0 5 -14 23 -31 40 -16
16 -38 47 -48 69 -10 22 -25 46 -34 54 -29 23 -20 -7 17 -58 18 -25 41 -59 50
-76 9 -16 41 -64 71 -105 30 -41 64 -91 74 -110 11 -20 38 -55 60 -78 32 -33
40 -48 35 -66 -5 -22 -4 -23 48 -16 29 4 77 15 107 24 30 9 66 16 80 16 14 0
60 11 101 24 41 14 111 32 155 42 176 37 506 137 611 184 64 29 124 77 175
142 29 36 53 86 136 287 l34 84 -29 31 c-101 105 -233 304 -313 472 -37 79
-70 144 -73 144 -4 0 -6 -26 -6 -57z"/>
<path d="M4575 3444 c-18 -8 -71 -13 -135 -14 -206 -1 -360 -17 -483 -49 -124
-33 -262 -84 -361 -133 -156 -79 -239 -235 -163 -307 48 -44 207 -49 332 -11
33 10 114 32 180 49 66 16 163 44 215 60 142 46 374 125 385 132 18 11 109 39
160 48 37 7 56 6 76 -4 29 -15 49 -5 49 26 0 52 -88 55 -251 9 -25 -7 -57 -10
-70 -7 -28 7 -49 43 -49 82 0 20 5 25 26 25 14 0 40 6 57 14 18 8 40 16 49 19
26 9 40 41 25 59 -10 13 -16 14 -42 2z"/>
<path d="M5130 3029 c0 -5 5 -7 10 -4 6 3 10 8 10 11 0 2 -4 4 -10 4 -5 0 -10
-5 -10 -11z"/>
<path d="M4820 2969 c0 -17 4 -28 10 -24 6 3 10 17 10 31 0 13 -4 24 -10 24
-5 0 -10 -14 -10 -31z"/>
<path d="M4706 2372 c-8 -13 11 -35 23 -28 16 10 14 36 -3 36 -8 0 -17 -4 -20
-8z"/>
<path d="M2007 2273 c-10 -9 -9 -43 1 -43 12 0 32 23 32 37 0 14 -22 18 -33 6z"/>
<path d="M5587 2263 c-4 -3 -7 -11 -7 -17 0 -6 5 -5 12 2 6 6 9 14 7 17 -3 3
-9 2 -12 -2z"/>
<path d="M5003 2043 c9 -2 25 -2 35 0 9 3 1 5 -18 5 -19 0 -27 -2 -17 -5z"/>
<path d="M4858 2013 c7 -3 16 -2 19 1 4 3 -2 6 -13 5 -11 0 -14 -3 -6 -6z"/>
<path d="M4648 1973 c7 -3 16 -2 19 1 4 3 -2 6 -13 5 -11 0 -14 -3 -6 -6z"/>
<path d="M4470 1946 c-58 -13 -112 -25 -120 -28 -30 -12 37 -8 90 6 30 7 77
17 104 21 27 3 58 10 70 15 40 16 -33 9 -144 -14z"/>
<path d="M6180 1920 c-74 -10 -178 -28 -230 -39 -52 -12 -113 -26 -135 -31
-65 -15 -185 -37 -260 -49 -218 -33 -275 -40 -320 -35 l-50 4 40 -16 c22 -8
59 -21 82 -29 39 -12 43 -11 48 6 4 10 16 21 28 24 96 19 135 25 181 25 50 0
57 -3 86 -37 69 -78 188 -284 234 -402 55 -143 73 -258 57 -358 -9 -58 -13
-65 -83 -133 -157 -156 -234 -206 -467 -312 -415 -187 -839 -289 -1336 -323
-49 -3 -119 -10 -155 -15 -36 -5 -161 -12 -278 -15 -118 -3 -224 -8 -238 -11
-26 -7 -350 10 -509 26 -159 16 -412 53 -458 66 -15 5 -17 13 -13 47 3 23 10
92 16 152 6 61 13 119 15 130 4 19 17 22 122 34 65 7 201 26 303 42 274 44
297 47 395 59 50 7 110 16 135 20 49 10 180 30 360 56 107 15 118 15 147 0 37
-19 92 -21 128 -4 24 11 29 19 26 44 -2 17 31 41 64 47 17 2 86 14 155 26 69
11 157 28 195 36 39 9 108 23 155 31 47 8 122 21 168 29 45 8 119 21 165 29
167 29 271 56 341 90 58 28 80 45 114 92 43 58 82 162 82 218 -1 87 -58 220
-101 235 -7 2 -1 -10 14 -28 28 -34 67 -144 67 -190 0 -40 -29 -130 -57 -179
-33 -56 -93 -106 -156 -131 -118 -45 -569 -135 -1019 -201 -109 -16 -202 -31
-207 -34 -15 -10 -41 5 -41 24 0 31 34 47 130 64 52 9 178 32 280 51 386 73
449 85 580 105 269 40 374 113 387 269 4 49 1 64 -29 121 -47 92 -99 120 -216
119 -127 -1 -128 -15 -2 -22 l115 -6 42 -44 c79 -83 86 -223 16 -293 -64 -64
-160 -95 -423 -134 -80 -12 -201 -32 -270 -45 -364 -67 -513 -88 -551 -78 -30
8 -39 7 -39 -3 0 -7 -12 -21 -26 -32 -24 -17 -26 -23 -20 -57 5 -25 19 -50 41
-70 l34 -30 -24 -23 c-26 -25 -67 -29 -87 -9 -24 24 -58 38 -77 32 -11 -3 -57
-10 -103 -14 -99 -11 -339 -43 -533 -72 -129 -19 -224 -33 -501 -74 -170 -25
-274 -30 -275 -14 -5 66 18 99 70 99 64 1 904 120 1131 161 63 11 137 23 163
26 36 4 52 12 65 31 36 52 61 72 92 72 18 0 29 4 25 10 -3 6 -22 10 -42 10
-29 0 -44 -8 -74 -40 -50 -52 -64 -57 -196 -65 l-111 -7 -6 43 c-26 171 -52
309 -58 309 -18 0 -20 -58 -4 -134 9 -44 17 -114 19 -155 2 -61 -1 -75 -15
-85 -35 -22 -51 4 -71 115 -10 57 -24 140 -32 184 -13 72 -13 81 2 97 19 22
52 23 78 4 17 -12 23 -11 47 9 19 16 47 25 90 30 35 4 72 11 83 16 l20 8 -20
0 c-48 1 -488 -56 -515 -67 -8 -3 12 -9 45 -12 l59 -5 14 -114 14 -115 -28
-23 c-35 -28 -94 -31 -116 -5 -8 9 -21 55 -28 102 -15 102 -16 119 -5 144 8
18 5 19 -51 12 -32 -4 -102 -11 -154 -16 -88 -10 -261 -33 -337 -47 -31 -5
-33 -4 -33 26 0 18 6 47 14 65 15 37 43 50 131 62 87 12 82 22 -8 17 -103 -7
-111 1 -77 72 25 52 18 50 260 94 152 28 193 36 305 61 22 4 78 16 125 25 47
9 126 26 175 37 50 11 136 28 192 38 108 20 163 39 111 40 -15 0 -47 -4 -70
-10 -24 -5 -148 -30 -276 -55 -172 -34 -237 -43 -251 -35 -16 8 -23 5 -39 -18
-20 -27 -21 -27 -50 -10 -24 15 -31 15 -43 3 -18 -18 -266 -68 -302 -61 -19 4
-37 -1 -56 -15 -24 -18 -32 -19 -51 -9 -20 11 -22 18 -18 72 3 45 1 61 -9 65
-26 10 -37 -13 -19 -38 20 -30 20 -81 0 -121 -19 -36 -95 -269 -117 -361 -69
-275 -127 -577 -127 -667 -1 -105 -83 -502 -112 -537 -8 -10 0 -13 35 -13 46
0 46 0 58 42 16 58 31 68 78 57 22 -5 101 -18 178 -29 76 -11 181 -27 233 -35
157 -26 399 -37 695 -32 289 6 454 22 875 83 96 15 184 27 195 28 18 1 20 -4
17 -56 l-4 -58 213 0 213 0 57 56 c80 80 119 60 57 -28 l-19 -28 315 0 c313 0
316 0 316 21 0 11 -31 69 -70 127 -40 62 -70 118 -70 133 0 69 86 67 174 -6
24 -19 58 -41 77 -50 19 -8 42 -21 52 -28 15 -10 21 -9 32 7 8 10 16 24 18 30
3 7 14 3 28 -10 13 -11 76 -49 139 -84 63 -35 143 -81 178 -102 l62 -38 274 0
c231 0 275 2 286 15 16 19 39 19 46 0 5 -12 29 -15 125 -15 l119 0 0 233 c0
223 -12 357 -39 446 -12 40 -6 54 20 46 16 -5 19 -1 19 24 0 28 -3 31 -30 31
-34 0 -156 59 -244 118 -71 49 -181 178 -195 230 -6 21 -19 41 -32 47 -15 7
-30 36 -51 100 -35 102 -41 214 -22 365 15 116 73 230 117 230 34 0 4 16 -86
45 -70 22 -94 25 -225 24 -81 -1 -208 -9 -282 -19z m-2826 -592 c2 -7 11 -74
20 -148 30 -245 29 -227 9 -234 -26 -11 -229 -43 -443 -72 -166 -21 -286 -38
-434 -60 l-48 -7 4 49 c4 53 42 248 65 332 l14 52 43 0 43 0 12 -92 c13 -98
25 -135 53 -152 27 -16 28 -5 8 55 -11 31 -24 83 -29 115 -13 83 -1 99 80 108
39 4 67 2 73 -4 13 -13 34 -127 35 -187 1 -50 -27 -78 -89 -88 -56 -10 -39
-28 21 -23 102 10 121 51 94 199 -11 63 -13 95 -6 102 16 16 171 38 190 27 12
-6 20 -33 29 -94 13 -100 33 -149 68 -165 39 -17 103 -13 140 10 40 24 50 62
34 134 -6 28 -14 74 -17 103 -5 44 -3 52 11 52 9 0 18 -6 20 -12z m2896 -323
c0 -9 -9 -15 -22 -15 -22 1 -23 1 -4 15 25 19 26 19 26 0z m-322 -215 c9 -59
-251 -255 -490 -369 -214 -102 -462 -171 -893 -249 -99 -18 -155 -26 -415 -62
-306 -42 -763 -60 -1040 -41 -91 6 -232 22 -315 35 -82 13 -193 30 -245 36
-105 13 -164 33 -157 52 5 17 24 15 192 -15 77 -14 190 -30 250 -36 61 -5 164
-15 230 -22 232 -22 875 4 1225 50 310 41 588 102 790 173 160 56 326 125 380
157 25 15 61 33 80 41 101 39 270 159 369 262 21 21 35 17 39 -12z"/>
<path d="M4185 1894 c-188 -36 -259 -60 -145 -49 88 9 309 63 255 63 -22 0
-71 -6 -110 -14z"/>
<path d="M3147 1833 c-12 -11 -7 -33 7 -33 12 0 26 20 26 36 0 7 -26 5 -33 -3z"/>
<path d="M7215 1830 c3 -5 8 -10 11 -10 2 0 4 5 4 10 0 6 -5 10 -11 10 -5 0
-7 -4 -4 -10z"/>
<path d="M3052 1811 c-10 -6 -10 -10 2 -20 10 -9 16 -9 21 -1 10 16 -7 31 -23
21z"/>
<path d="M6905 1800 c3 -5 8 -10 11 -10 2 0 4 5 4 10 0 6 -5 10 -11 10 -5 0
-7 -4 -4 -10z"/>
<path d="M7001 1718 c67 -67 119 -101 119 -78 0 9 -101 90 -160 129 -22 14 -6
-6 41 -51z"/>
<path d="M2690 1736 c0 -20 27 -28 34 -10 9 23 8 24 -14 24 -11 0 -20 -6 -20
-14z"/>
<path d="M3065 1740 c-3 -5 -1 -10 4 -10 6 0 11 5 11 10 0 6 -2 10 -4 10 -3 0
-8 -4 -11 -10z"/>
<path d="M3718 1632 c-32 -38 -60 -47 -228 -72 -80 -12 -163 -26 -185 -31 -35
-7 -32 -8 20 -4 105 8 171 16 330 40 21 4 43 20 68 50 21 25 34 45 28 45 -5 0
-20 -12 -33 -28z"/>
<path d="M3856 1605 c-9 -13 -16 -28 -16 -32 0 -4 5 0 11 10 6 10 22 17 39 17
33 0 48 15 24 24 -28 11 -41 6 -58 -19z"/>
<path d="M7122 1590 c-7 -11 -16 -20 -22 -20 -5 0 -35 -10 -66 -21 -67 -25
-195 -141 -225 -204 l-19 -40 32 40 c106 128 142 156 258 202 77 31 91 33 121
17 42 -21 36 0 -7 25 -44 26 -56 26 -72 1z"/>
<path d="M4489 1595 c-5 -4 -103 -19 -437 -66 -84 -12 -167 -19 -183 -15 -37
7 -37 -4 2 -33 20 -15 29 -28 25 -39 -3 -10 3 -5 15 11 31 41 48 47 166 57 60
6 129 14 154 20 25 5 108 18 185 30 76 11 155 25 174 29 31 8 28 9 -31 10 -36
1 -68 -1 -70 -4z"/>
<path d="M3120 1500 c-11 -7 -8 -9 15 -9 17 1 41 5 55 9 22 7 20 8 -15 9 -22
0 -47 -4 -55 -9z"/>
<path d="M2910 1470 c-24 -8 -24 -8 5 -8 17 0 50 3 75 7 l45 8 -50 1 c-27 0
-61 -4 -75 -8z"/>
<path d="M6771 1282 c-7 -13 -11 -28 -8 -35 2 -7 9 -2 16 11 7 13 11 28 8 35
-2 7 -9 2 -16 -11z"/>
<path d="M7201 1145 c-12 -25 -21 -55 -19 -67 4 -21 5 -20 12 7 4 17 14 45 22
64 22 50 11 47 -15 -4z"/>
<path d="M7181 883 c0 -5 4 -17 9 -28 8 -18 9 -17 9 8 1 15 -3 27 -9 27 -5 0
-10 -3 -9 -7z"/>
<path d="M5390 805 c-14 -8 -38 -19 -53 -25 -41 -14 -33 -44 13 -48 48 -3 100
29 100 63 0 29 -21 33 -60 10z"/>
<path d="M5463 727 c-36 -25 -55 -32 -115 -36 -69 -6 -73 -7 -73 -31 0 -20 6
-25 35 -31 61 -13 148 9 191 48 25 22 39 44 39 59 0 33 -25 30 -77 -9z"/>
<path d="M2136 368 c-30 -42 -14 -118 24 -118 31 0 50 28 50 74 0 65 -42 90
-74 44z"/>
</g>
</svg>
